<svg width="181" height="49" viewBox="0 0 181 49" fill="none" xmlns="http://www.w3.org/2000/svg">
<path d="M22.96 29H21.48H18.8L15.96 24.94H14.2V29H10.8V13.54H16.5C17.38 13.54 18.18 13.6533 18.9 13.88C19.6333 14.0933 20.28 14.4133 20.84 14.84C21.1467 15.0933 21.42 15.3733 21.66 15.68C21.9133 15.9733 22.12 16.2933 22.28 16.64C22.6267 17.3733 22.8 18.1667 22.8 19.02C22.8 19.8333 22.6533 20.6067 22.36 21.34C22.08 22.0467 21.66 22.6733 21.1 23.22C20.66 23.66 20.1733 24.0067 19.64 24.26L22.96 29ZM14.2 21.54H16.5H16.52C17.4667 21.5667 18.2 21.32 18.72 20.8C19.1733 20.3467 19.4 19.7533 19.4 19.02C19.4 17.6333 18.4333 16.94 16.5 16.94H14.2V21.54ZM29.3917 26.84C29.3917 27.1867 29.3251 27.5133 29.1917 27.82C29.0584 28.1133 28.8784 28.3733 28.6517 28.6C28.4251 28.8133 28.1584 28.9867 27.8517 29.12C27.5584 29.2533 27.2384 29.32 26.8917 29.32C26.5451 29.32 26.2184 29.2533 25.9117 29.12C25.6184 28.9867 25.3584 28.8133 25.1317 28.6C24.9184 28.3733 24.7451 28.1133 24.6117 27.82C24.4784 27.5133 24.4117 27.1867 24.4117 26.84C24.4117 26.4933 24.4784 26.1733 24.6117 25.88C24.7451 25.5733 24.9184 25.3067 25.1317 25.08C25.3584 24.8533 25.6184 24.6733 25.9117 24.54C26.2184 24.4067 26.5451 24.34 26.8917 24.34C27.2384 24.34 27.5584 24.4067 27.8517 24.54C28.1584 24.6733 28.4251 24.8533 28.6517 25.08C28.8784 25.3067 29.0584 25.5733 29.1917 25.88C29.3251 26.1733 29.3917 26.4933 29.3917 26.84ZM47.2105 13.54H48.6505L52.5905 29H49.4305H49.0705L46.6305 19.4L43.2305 29H39.8305L36.4305 19.46L34.0505 29H32.4705H30.5305L34.4105 13.54H37.9305L41.5305 23.62L45.1105 13.54H47.2105ZM58.2272 25.7L56.7872 29H53.0872L59.7872 13.54H63.3272L70.0472 29H66.3272L64.9072 25.7H58.2272ZM61.5472 18.02L59.6872 22.3H63.4272L61.5472 18.02ZM84.3077 29H82.8277H80.1477L77.3077 24.94H75.5477V29H72.1477V13.54H77.8477C78.7277 13.54 79.5277 13.6533 80.2477 13.88C80.981 14.0933 81.6277 14.4133 82.1877 14.84C82.4943 15.0933 82.7677 15.3733 83.0077 15.68C83.261 15.9733 83.4677 16.2933 83.6277 16.64C83.9743 17.3733 84.1477 18.1667 84.1477 19.02C84.1477 19.8333 84.001 20.6067 83.7077 21.34C83.4277 22.0467 83.0077 22.6733 82.4477 23.22C82.0077 23.66 81.521 24.0067 80.9877 24.26L84.3077 29ZM75.5477 21.54H77.8477H77.8677C78.8143 21.5667 79.5477 21.32 80.0677 20.8C80.521 20.3467 80.7477 19.7533 80.7477 19.02C80.7477 17.6333 79.781 16.94 77.8477 16.94H75.5477V21.54ZM98.2594 13.54V16.94H93.6594V29H90.2594V16.94H85.6794V13.54H98.2594ZM104.198 29H100.798V13.54H104.198V29ZM121.035 13.54H122.695V29H119.535H119.035L111.095 18.66V29H109.995H107.695V13.54H111.455L119.295 23.76V13.54H121.035ZM131.888 29.2H131.608C131.008 29.1867 130.388 29.1133 129.748 28.98C129.122 28.8333 128.535 28.64 127.988 28.4C127.388 28.12 126.862 27.7933 126.408 27.42C125.955 27.0467 125.602 26.64 125.348 26.2L128.248 24.52C128.342 24.68 128.495 24.84 128.708 25C128.935 25.16 129.195 25.3067 129.488 25.44C129.795 25.5733 130.128 25.68 130.488 25.76C130.848 25.84 131.215 25.88 131.588 25.88H131.628H131.688C131.995 25.9067 132.362 25.88 132.788 25.8C133.228 25.72 133.662 25.58 134.088 25.38C134.822 25.0467 135.222 24.6 135.288 24.04C135.302 23.88 135.288 23.76 135.248 23.68C135.208 23.5867 135.155 23.5067 135.088 23.44C134.848 23.1733 134.482 22.9733 133.988 22.84C133.362 22.6533 132.642 22.56 131.828 22.56C131.602 22.56 131.275 22.5467 130.848 22.52C130.435 22.4933 129.982 22.4267 129.488 22.32C128.248 22.0267 127.275 21.5267 126.568 20.82C125.795 20.02 125.448 19.0333 125.528 17.86V17.84C125.568 17.28 125.695 16.7533 125.908 16.26C126.135 15.7667 126.455 15.3333 126.868 14.96C127.548 14.3067 128.422 13.8467 129.488 13.58C130.168 13.4067 130.882 13.32 131.628 13.32C132.388 13.32 133.128 13.4133 133.848 13.6C134.675 13.8 135.388 14.0933 135.988 14.48C136.602 14.8667 137.082 15.3133 137.428 15.82L134.588 17.62C134.508 17.5 134.342 17.36 134.088 17.2C133.835 17.04 133.482 16.9067 133.028 16.8C132.588 16.6933 132.128 16.64 131.648 16.64C131.168 16.6267 130.735 16.6733 130.348 16.78C130.002 16.86 129.728 16.96 129.528 17.08C129.342 17.2 129.195 17.3267 129.088 17.46C128.995 17.58 128.935 17.7 128.908 17.82C128.882 17.9267 128.868 18.0067 128.868 18.06C128.868 18.2067 128.882 18.32 128.908 18.4C128.948 18.4667 128.988 18.52 129.028 18.56C129.228 18.76 129.588 18.9267 130.108 19.06C130.628 19.18 131.202 19.24 131.828 19.24C133.108 19.24 134.235 19.4133 135.208 19.76C136.195 20.0933 136.988 20.58 137.588 21.22C137.975 21.6467 138.262 22.1267 138.448 22.66C138.635 23.18 138.695 23.74 138.628 24.34C138.548 25.2067 138.248 25.9867 137.728 26.68C137.208 27.36 136.495 27.92 135.588 28.36C135.028 28.6267 134.422 28.8333 133.768 28.98C133.128 29.1267 132.502 29.2 131.888 29.2ZM151.05 16.94H144.57V19.24H150.83V22.64H144.57V25.6H151.05V29H141.17V13.54H151.05V16.94ZM167.812 13.54H169.472V29H166.312H165.812L157.872 18.66V29H156.772H154.472V13.54H158.232L166.072 23.76V13.54H167.812Z" fill="white"/>
<path d="M31.056 32.4825H27.945V33.8368H30.937V35.3922H27.945V38H26.3895V30.927H31.056V32.4825ZM37.8678 38H37.1907H35.9646L34.6653 36.1425H33.8601V38H32.3046V30.927H34.9124C35.315 30.927 35.681 30.9789 36.0104 31.0826C36.3459 31.1802 36.6417 31.3266 36.8979 31.5218C37.0382 31.6377 37.1633 31.7658 37.2731 31.9061C37.389 32.0403 37.4835 32.1867 37.5567 32.3453C37.7153 32.6808 37.7946 33.0438 37.7946 33.4342C37.7946 33.8062 37.7275 34.16 37.5933 34.4955C37.4652 34.8189 37.2731 35.1056 37.0169 35.3557C36.8156 35.557 36.5929 35.7155 36.3489 35.8314L37.8678 38ZM33.8601 34.587H34.9124H34.9215C35.3546 34.5992 35.6901 34.4864 35.928 34.2485C36.1354 34.0411 36.2391 33.7696 36.2391 33.4342C36.2391 32.7997 35.7969 32.4825 34.9124 32.4825H33.8601V34.587ZM42.0609 38.1922C41.5546 38.1922 41.0697 38.0946 40.6061 37.8993C40.1547 37.7042 39.7582 37.4388 39.4166 37.1033C39.0811 36.7617 38.8157 36.3652 38.6205 35.9138C38.4253 35.4502 38.3277 34.9652 38.3277 34.4589C38.3277 33.9648 38.4253 33.4799 38.6205 33.0041C38.7181 32.7845 38.831 32.5771 38.9591 32.3819C39.0933 32.1806 39.2458 31.9946 39.4166 31.8238C39.5935 31.6468 39.7795 31.4943 39.9747 31.3663C40.176 31.232 40.3865 31.1162 40.6061 31.0186C41.0697 30.8234 41.5546 30.7258 42.0609 30.7258C42.555 30.7258 43.04 30.8234 43.5158 31.0186C43.7354 31.1162 43.9428 31.232 44.138 31.3663C44.3393 31.4943 44.5253 31.6468 44.6961 31.8238C44.873 31.9946 45.0255 32.1806 45.1536 32.3819C45.2878 32.5771 45.4037 32.7845 45.5013 33.0041C45.6965 33.4799 45.7941 33.9648 45.7941 34.4589C45.7941 34.9652 45.6965 35.4502 45.5013 35.9138C45.4037 36.1334 45.2878 36.3439 45.1536 36.5451C45.0255 36.7403 44.873 36.9264 44.6961 37.1033C44.5253 37.2741 44.3393 37.4266 44.138 37.5608C43.9428 37.6889 43.7354 37.8018 43.5158 37.8993C43.04 38.0946 42.555 38.1922 42.0609 38.1922ZM42.0609 32.2813C41.762 32.2813 41.4784 32.3392 41.21 32.4551C40.9477 32.571 40.7189 32.7266 40.5237 32.9218C40.3285 33.117 40.173 33.3488 40.0571 33.6171C39.9412 33.8794 39.8832 34.16 39.8832 34.4589C39.8832 34.7578 39.9412 35.0415 40.0571 35.3099C40.173 35.5722 40.3285 35.8009 40.5237 35.9961C40.7189 36.1914 40.9477 36.3469 41.21 36.4628C41.4784 36.5787 41.762 36.6367 42.0609 36.6367C42.3598 36.6367 42.6404 36.5787 42.9027 36.4628C43.1711 36.3469 43.4029 36.1914 43.5981 35.9961C43.7933 35.8009 43.9489 35.5722 44.0648 35.3099C44.1807 35.0415 44.2386 34.7578 44.2386 34.4589C44.2386 34.16 44.1807 33.8794 44.0648 33.6171C43.9489 33.3488 43.7933 33.117 43.5981 32.9218C43.4029 32.7266 43.1711 32.571 42.9027 32.4551C42.6404 32.3392 42.3598 32.2813 42.0609 32.2813ZM53.1781 30.927H53.9376V38H52.4919H52.2631L48.6306 33.2695V38H48.1273H47.0751V30.927H48.7953L52.3821 35.6027V30.927H53.1781ZM60.8887 30.927V32.4825H58.7842V38H57.2287V32.4825H55.1334V30.927H60.8887ZM66.6435 35.136H62.1051V33.5806H66.6435V35.136ZM72.7541 32.4825H69.7895V33.5348H72.6535V35.0903H69.7895V36.4445H72.7541V38H68.234V30.927H72.7541V32.4825ZM80.4226 30.927H81.182V38H79.7363H79.5076L75.875 33.2695V38H75.3718H74.3195V30.927H76.0397L79.6265 35.6027V30.927H80.4226ZM85.4614 38H82.8262V30.927H85.4614C85.9616 30.927 86.4313 31.0155 86.8705 31.1924C87.3158 31.3632 87.7062 31.6133 88.0417 31.9427C88.3711 32.2721 88.6242 32.6503 88.8011 33.0773C88.978 33.5043 89.0665 33.9587 89.0665 34.4406C89.0665 34.9226 88.9811 35.377 88.8103 35.804C88.6456 36.231 88.4016 36.6092 88.0783 36.9386C87.9197 37.1094 87.7428 37.2588 87.5476 37.387C87.3524 37.515 87.145 37.6248 86.9254 37.7163C86.4618 37.9054 85.9738 38 85.4614 38ZM84.3817 36.4445H85.4614C85.7603 36.4445 86.0348 36.3957 86.2849 36.2981C86.5411 36.2005 86.7576 36.0633 86.9345 35.8864C87.1175 35.7094 87.2578 35.499 87.3554 35.255C87.4591 35.0049 87.511 34.7334 87.511 34.4406C87.511 34.16 87.4591 33.9008 87.3554 33.6629C87.2578 33.4189 87.1175 33.2115 86.9345 33.0407C86.7515 32.8638 86.535 32.7265 86.2849 32.629C86.0348 32.5313 85.7603 32.4825 85.4614 32.4825H84.3817V36.4445ZM96.6576 38H94.0224V30.927H96.6576C97.1578 30.927 97.6275 31.0155 98.0667 31.1924C98.512 31.3632 98.9024 31.6133 99.2379 31.9427C99.5673 32.2721 99.8205 32.6503 99.9974 33.0773C100.174 33.5043 100.263 33.9587 100.263 34.4406C100.263 34.9226 100.177 35.377 100.007 35.804C99.8418 36.231 99.5978 36.6092 99.2745 36.9386C99.1159 37.1094 98.939 37.2588 98.7438 37.387C98.5486 37.515 98.3412 37.6248 98.1216 37.7163C97.658 37.9054 97.17 38 96.6576 38ZM95.5779 36.4445H96.6576C96.9565 36.4445 97.231 36.3957 97.4811 36.2981C97.7373 36.2005 97.9539 36.0633 98.1308 35.8864C98.3138 35.7094 98.4541 35.499 98.5517 35.255C98.6554 35.0049 98.7072 34.7334 98.7072 34.4406C98.7072 34.16 98.6554 33.9008 98.5517 33.6629C98.4541 33.4189 98.3138 33.2115 98.1308 33.0407C97.9478 32.8638 97.7312 32.7265 97.4811 32.629C97.231 32.5313 96.9565 32.4825 96.6576 32.4825H95.5779V36.4445ZM106.057 32.4825H103.092V33.5348H105.956V35.0903H103.092V36.4445H106.057V38H101.537V30.927H106.057V32.4825ZM113.744 30.927H114.814L111.648 38H110.139L106.964 30.927H108.665L110.889 35.8864L113.112 30.927H113.744ZM120.309 32.4825H117.344V33.5348H120.208V35.0903H117.344V36.4445H120.309V38H115.789V30.927H120.309V32.4825ZM126.44 38H121.875V30.927H123.43V36.4445H126.44V38ZM131.014 38.1922C130.508 38.1922 130.023 38.0946 129.559 37.8993C129.108 37.7042 128.712 37.4388 128.37 37.1033C128.034 36.7617 127.769 36.3652 127.574 35.9138C127.379 35.4502 127.281 34.9652 127.281 34.4589C127.281 33.9648 127.379 33.4799 127.574 33.0041C127.672 32.7845 127.784 32.5771 127.912 32.3819C128.047 32.1806 128.199 31.9946 128.37 31.8238C128.547 31.6468 128.733 31.4943 128.928 31.3663C129.129 31.232 129.34 31.1162 129.559 31.0186C130.023 30.8234 130.508 30.7258 131.014 30.7258C131.508 30.7258 131.993 30.8234 132.469 31.0186C132.689 31.1162 132.896 31.232 133.091 31.3663C133.293 31.4943 133.479 31.6468 133.65 31.8238C133.826 31.9946 133.979 32.1806 134.107 32.3819C134.241 32.5771 134.357 32.7845 134.455 33.0041C134.65 33.4799 134.748 33.9648 134.748 34.4589C134.748 34.9652 134.65 35.4502 134.455 35.9138C134.357 36.1334 134.241 36.3439 134.107 36.5451C133.979 36.7403 133.826 36.9264 133.65 37.1033C133.479 37.2741 133.293 37.4266 133.091 37.5608C132.896 37.6889 132.689 37.8018 132.469 37.8993C131.993 38.0946 131.508 38.1922 131.014 38.1922ZM131.014 32.2813C130.715 32.2813 130.432 32.3392 130.163 32.4551C129.901 32.571 129.672 32.7266 129.477 32.9218C129.282 33.117 129.126 33.3488 129.01 33.6171C128.895 33.8794 128.837 34.16 128.837 34.4589C128.837 34.7578 128.895 35.0415 129.01 35.3099C129.126 35.5722 129.282 35.8009 129.477 35.9961C129.672 36.1914 129.901 36.3469 130.163 36.4628C130.432 36.5787 130.715 36.6367 131.014 36.6367C131.313 36.6367 131.594 36.5787 131.856 36.4628C132.125 36.3469 132.356 36.1914 132.552 35.9961C132.747 35.8009 132.902 35.5722 133.018 35.3099C133.134 35.0415 133.192 34.7578 133.192 34.4589C133.192 34.16 133.134 33.8794 133.018 33.6171C132.902 33.3488 132.747 33.117 132.552 32.9218C132.356 32.7266 132.125 32.571 131.856 32.4551C131.594 32.3392 131.313 32.2813 131.014 32.2813ZM137.575 38H136.019V30.927H138.627C139.017 30.927 139.377 30.9758 139.707 31.0735C140.042 31.171 140.338 31.3174 140.594 31.5126C140.893 31.7383 141.119 32.0128 141.271 32.3362C141.43 32.6717 141.509 33.0377 141.509 33.4342C141.509 33.8185 141.442 34.1722 141.308 34.4955C141.174 34.8371 140.982 35.1238 140.732 35.3557C140.475 35.6119 140.17 35.8071 139.817 35.9413C139.463 36.0754 139.081 36.1425 138.673 36.1425H138.609H137.575V38ZM137.575 34.587H138.627H138.636C139.069 34.5992 139.405 34.4864 139.643 34.2485C139.85 34.0472 139.954 33.7758 139.954 33.4342C139.954 33.2267 139.92 33.0742 139.853 32.9766C139.786 32.8729 139.719 32.7967 139.652 32.7479C139.536 32.6625 139.39 32.5985 139.213 32.5557C139.036 32.5069 138.841 32.4825 138.627 32.4825H137.575V34.587ZM147.062 32.4825H144.098V33.5348H146.961V35.0903H144.098V36.4445H147.062V38H142.542V30.927H147.062V32.4825ZM154.191 38H153.514H152.288L150.988 36.1425H150.183V38H148.628V30.927H151.235C151.638 30.927 152.004 30.9789 152.333 31.0826C152.669 31.1802 152.965 31.3266 153.221 31.5218C153.361 31.6377 153.486 31.7658 153.596 31.9061C153.712 32.0403 153.806 32.1867 153.88 32.3453C154.038 32.6808 154.118 33.0438 154.118 33.4342C154.118 33.8062 154.05 34.16 153.916 34.4955C153.788 34.8189 153.596 35.1056 153.34 35.3557C153.138 35.557 152.916 35.7155 152.672 35.8314L154.191 38ZM150.183 34.587H151.235H151.244C151.678 34.5992 152.013 34.4864 152.251 34.2485C152.458 34.0411 152.562 33.7696 152.562 33.4342C152.562 32.7997 152.12 32.4825 151.235 32.4825H150.183V34.587Z" fill="white"/>
<path d="M11 31L25 31V38L11 31Z" fill="#0A0179"/>
<path d="M169 31L155 31V38L169 31Z" fill="#0A0179"/>
</svg>
