<svg width="1440" height="65" viewBox="0 0 1440 65" fill="none" xmlns="http://www.w3.org/2000/svg">
<g clip-path="url(#clip0_73_10)">
<rect width="1440" height="65" fill="#051633"/>
<rect width="1440" height="49" transform="translate(0 16)" fill="url(#paint0_linear_73_10)"/>
<rect y="-1" width="1440" height="65" fill="url(#paint1_linear_73_10)" fill-opacity="0.1"/>
<g clip-path="url(#clip1_73_10)">
<path d="M0 25.8L60 24.9884C120 24.1156 240 22.5844 360 25.8C480 29.0156 600 37.2844 720 42.95C840 48.6156 960 51.9844 1080 53.5616C1200 55.2 1320 55.2 1380 55.2H1440V65H1380C1320 65 1200 65 1080 65C960 65 840 65 720 65C600 65 480 65 360 65C240 65 120 65 60 65H0V25.8Z" fill="url(#paint2_linear_73_10)" fill-opacity="0.6"/>
<path d="M0 57.5999L60 48.9743C120 40.2562 240 23.1437 360 19.3743C480 15.7437 600 25.4562 720 23.0743C840 20.5999 960 5.79994 1080 3.32557C1200 0.943693 1320 10.6562 1380 15.6743L1440 20.5999V64.9999H1380C1320 64.9999 1200 64.9999 1080 64.9999C960 64.9999 840 64.9999 720 64.9999C600 64.9999 480 64.9999 360 64.9999C240 64.9999 120 64.9999 60 64.9999H0V57.5999Z" fill="url(#paint3_linear_73_10)" fill-opacity="0.6"/>
</g>
</g>
<defs>
<linearGradient id="paint0_linear_73_10" x1="720" y1="0" x2="720" y2="49" gradientUnits="userSpaceOnUse">
<stop stop-color="#1F0B6E" stop-opacity="0"/>
<stop offset="0.5" stop-color="#39874A"/>
</linearGradient>
<linearGradient id="paint1_linear_73_10" x1="0" y1="-1" x2="1440" y2="64" gradientUnits="userSpaceOnUse">
<stop stop-color="#1F0B6E"/>
<stop offset="1" stop-color="#12F382"/>
</linearGradient>
<linearGradient id="paint2_linear_73_10" x1="720" y1="23.8496" x2="720" y2="65" gradientUnits="userSpaceOnUse">
<stop stop-color="#1F0B6E"/>
<stop offset="0.0001" stop-color="#0B6E3C"/>
<stop offset="0.776042" stop-color="#0B6E3C"/>
</linearGradient>
<linearGradient id="paint3_linear_73_10" x1="720" y1="2.95581" x2="720" y2="64.9999" gradientUnits="userSpaceOnUse">
<stop stop-color="#1F0B6E"/>
<stop offset="0.0001" stop-color="#0B6E3C"/>
<stop offset="0.776042" stop-color="#0B6E3C"/>
</linearGradient>
<clipPath id="clip0_73_10">
<rect width="1440" height="65" fill="white"/>
</clipPath>
<clipPath id="clip1_73_10">
<rect width="1440" height="74" fill="white" transform="translate(0 -9)"/>
</clipPath>
</defs>
</svg>
