<svg width="1444" height="159" viewBox="0 0 1444 159" fill="none" xmlns="http://www.w3.org/2000/svg">
<g clip-path="url(#clip0_76_14)" filter="url(#filter0_f_76_14)">
<g filter="url(#filter1_d_76_14)">
<path d="M2 138.553L50 110.883C98 83.2127 194 27.8722 290 9.42541C386 -9.02141 482 9.42541 578 37.0956C674 64.7659 770 101.66 866 107.828C962 113.765 1058 89.5538 1154 89.3809C1250 89.5538 1346 113.765 1394 126.275L1442 138.553V157H1394C1346 157 1250 157 1154 157C1058 157 962 157 866 157C770 157 674 157 578 157C482 157 386 157 290 157C194 157 98 157 50 157H2V138.553Z" fill="#051633" fill-opacity="0.8"/>
</g>
</g>
<defs>
<filter id="filter0_f_76_14" x="0.8" y="0.8" width="1442.4" height="157.4" filterUnits="userSpaceOnUse" color-interpolation-filters="sRGB">
<feFlood flood-opacity="0" result="BackgroundImageFix"/>
<feBlend mode="normal" in="SourceGraphic" in2="BackgroundImageFix" result="shape"/>
<feGaussianBlur stdDeviation="0.6" result="effect1_foregroundBlur_76_14"/>
</filter>
<filter id="filter1_d_76_14" x="2" y="-1" width="1451" height="163" filterUnits="userSpaceOnUse" color-interpolation-filters="sRGB">
<feFlood flood-opacity="0" result="BackgroundImageFix"/>
<feColorMatrix in="SourceAlpha" type="matrix" values="0 0 0 0 0 0 0 0 0 0 0 0 0 0 0 0 0 0 127 0" result="hardAlpha"/>
<feOffset dx="7" dy="1"/>
<feGaussianBlur stdDeviation="2"/>
<feColorMatrix type="matrix" values="0 0 0 0 0 0 0 0 0 0 0 0 0 0 0 0 0 0 0.25 0"/>
<feBlend mode="normal" in2="BackgroundImageFix" result="effect1_dropShadow_76_14"/>
<feBlend mode="normal" in="SourceGraphic" in2="effect1_dropShadow_76_14" result="shape"/>
</filter>
<clipPath id="clip0_76_14">
<rect width="1440" height="155" fill="white" transform="translate(2 2)"/>
</clipPath>
</defs>
</svg>
