<svg width="128" height="128" viewBox="0 0 128 128" fill="none" xmlns="http://www.w3.org/2000/svg">
<rect width="128" height="128" fill="white"/>
<path d="M26.376 63H25.488H23.88L22.176 60.564H21.12V63H19.08V53.724H22.5C23.028 53.724 23.508 53.792 23.94 53.928C24.38 54.056 24.768 54.248 25.104 54.504C25.288 54.656 25.452 54.824 25.596 55.008C25.748 55.184 25.872 55.376 25.968 55.584C26.176 56.024 26.28 56.5 26.28 57.012C26.28 57.5 26.192 57.964 26.016 58.404C25.848 58.828 25.596 59.204 25.26 59.532C24.996 59.796 24.704 60.004 24.384 60.156L26.376 63ZM21.12 58.524H22.5H22.512C23.08 58.54 23.52 58.392 23.832 58.08C24.104 57.808 24.24 57.452 24.24 57.012C24.24 56.18 23.66 55.764 22.5 55.764H21.12V58.524ZM30.235 61.704C30.235 61.912 30.195 62.108 30.115 62.292C30.035 62.468 29.927 62.624 29.791 62.76C29.655 62.888 29.495 62.992 29.311 63.072C29.135 63.152 28.943 63.192 28.735 63.192C28.527 63.192 28.331 63.152 28.147 63.072C27.971 62.992 27.815 62.888 27.679 62.76C27.551 62.624 27.447 62.468 27.367 62.292C27.287 62.108 27.247 61.912 27.247 61.704C27.247 61.496 27.287 61.304 27.367 61.128C27.447 60.944 27.551 60.784 27.679 60.648C27.815 60.512 27.971 60.404 28.147 60.324C28.331 60.244 28.527 60.204 28.735 60.204C28.943 60.204 29.135 60.244 29.311 60.324C29.495 60.404 29.655 60.512 29.791 60.648C29.927 60.784 30.035 60.944 30.115 61.128C30.195 61.304 30.235 61.496 30.235 61.704ZM40.9263 53.724H41.7903L44.1543 63H42.2583H42.0423L40.5783 57.24L38.5383 63H36.4983L34.4583 57.276L33.0303 63H32.0823H30.9183L33.2463 53.724H35.3583L37.5183 59.772L39.6663 53.724H40.9263ZM47.5363 61.02L46.6723 63H44.4523L48.4723 53.724H50.5963L54.6283 63H52.3963L51.5443 61.02H47.5363ZM49.5283 56.412L48.4123 58.98H50.6563L49.5283 56.412ZM63.1846 63H62.2966H60.6886L58.9846 60.564H57.9286V63H55.8886V53.724H59.3086C59.8366 53.724 60.3166 53.792 60.7486 53.928C61.1886 54.056 61.5766 54.248 61.9126 54.504C62.0966 54.656 62.2606 54.824 62.4046 55.008C62.5566 55.184 62.6806 55.376 62.7766 55.584C62.9846 56.024 63.0886 56.5 63.0886 57.012C63.0886 57.5 63.0006 57.964 62.8246 58.404C62.6566 58.828 62.4046 59.204 62.0686 59.532C61.8046 59.796 61.5126 60.004 61.1926 60.156L63.1846 63ZM57.9286 58.524H59.3086H59.3206C59.8886 58.54 60.3286 58.392 60.6406 58.08C60.9126 57.808 61.0486 57.452 61.0486 57.012C61.0486 56.18 60.4686 55.764 59.3086 55.764H57.9286V58.524ZM71.5556 53.724V55.764H68.7956V63H66.7556V55.764H64.0076V53.724H71.5556ZM75.1189 63H73.0789V53.724H75.1189V63ZM85.2207 53.724H86.2167V63H84.3207H84.0207L79.2567 56.796V63H78.5967H77.2167V53.724H79.4727L84.1767 59.856V53.724H85.2207ZM91.733 63.12H91.565C91.205 63.112 90.833 63.068 90.449 62.988C90.073 62.9 89.721 62.784 89.393 62.64C89.033 62.472 88.717 62.276 88.445 62.052C88.173 61.828 87.961 61.584 87.809 61.32L89.549 60.312C89.605 60.408 89.697 60.504 89.825 60.6C89.961 60.696 90.117 60.784 90.293 60.864C90.477 60.944 90.677 61.008 90.893 61.056C91.109 61.104 91.329 61.128 91.553 61.128H91.577H91.613C91.797 61.144 92.017 61.128 92.273 61.08C92.537 61.032 92.797 60.948 93.053 60.828C93.493 60.628 93.733 60.36 93.773 60.024C93.781 59.928 93.773 59.856 93.749 59.808C93.725 59.752 93.693 59.704 93.653 59.664C93.509 59.504 93.289 59.384 92.993 59.304C92.617 59.192 92.185 59.136 91.697 59.136C91.561 59.136 91.365 59.128 91.109 59.112C90.861 59.096 90.589 59.056 90.293 58.992C89.549 58.816 88.965 58.516 88.541 58.092C88.077 57.612 87.869 57.02 87.917 56.316V56.304C87.941 55.968 88.017 55.652 88.145 55.356C88.281 55.06 88.473 54.8 88.721 54.576C89.129 54.184 89.653 53.908 90.293 53.748C90.701 53.644 91.129 53.592 91.577 53.592C92.033 53.592 92.477 53.648 92.909 53.76C93.405 53.88 93.833 54.056 94.193 54.288C94.561 54.52 94.849 54.788 95.057 55.092L93.353 56.172C93.305 56.1 93.205 56.016 93.053 55.92C92.901 55.824 92.689 55.744 92.417 55.68C92.153 55.616 91.877 55.584 91.589 55.584C91.301 55.576 91.041 55.604 90.809 55.668C90.601 55.716 90.437 55.776 90.317 55.848C90.205 55.92 90.117 55.996 90.053 56.076C89.997 56.148 89.961 56.22 89.945 56.292C89.929 56.356 89.921 56.404 89.921 56.436C89.921 56.524 89.929 56.592 89.945 56.64C89.969 56.68 89.993 56.712 90.017 56.736C90.137 56.856 90.353 56.956 90.665 57.036C90.977 57.108 91.321 57.144 91.697 57.144C92.465 57.144 93.141 57.248 93.725 57.456C94.317 57.656 94.793 57.948 95.153 58.332C95.385 58.588 95.557 58.876 95.669 59.196C95.781 59.508 95.817 59.844 95.777 60.204C95.729 60.724 95.549 61.192 95.237 61.608C94.925 62.016 94.497 62.352 93.953 62.616C93.617 62.776 93.253 62.9 92.861 62.988C92.477 63.076 92.101 63.12 91.733 63.12ZM103.23 55.764H99.3421V57.144H103.098V59.184H99.3421V60.96H103.23V63H97.3021V53.724H103.23V55.764ZM113.287 53.724H114.283V63H112.387H112.087L107.323 56.796V63H106.663H105.283V53.724H107.539L112.243 59.856V53.724H113.287Z" fill="black"/>
<path d="M34.005 65.985H32.305V66.725H33.94V67.575H32.305V69H31.455V65.135H34.005V65.985ZM37.7273 69H37.3573H36.6873L35.9773 67.985H35.5373V69H34.6873V65.135H36.1123C36.3323 65.135 36.5323 65.1633 36.7123 65.22C36.8956 65.2733 37.0573 65.3533 37.1973 65.46C37.274 65.5233 37.3423 65.5933 37.4023 65.67C37.4656 65.7433 37.5173 65.8233 37.5573 65.91C37.644 66.0933 37.6873 66.2917 37.6873 66.505C37.6873 66.7083 37.6506 66.9017 37.5773 67.085C37.5073 67.2617 37.4023 67.4183 37.2623 67.555C37.1523 67.665 37.0306 67.7517 36.8973 67.815L37.7273 69ZM35.5373 67.135H36.1123H36.1173C36.354 67.1417 36.5373 67.08 36.6673 66.95C36.7806 66.8367 36.8373 66.6883 36.8373 66.505C36.8373 66.1583 36.5956 65.985 36.1123 65.985H35.5373V67.135ZM40.0186 69.105C39.742 69.105 39.477 69.0517 39.2236 68.945C38.977 68.8383 38.7603 68.6933 38.5736 68.51C38.3903 68.3233 38.2453 68.1067 38.1386 67.86C38.032 67.6067 37.9786 67.3417 37.9786 67.065C37.9786 66.795 38.032 66.53 38.1386 66.27C38.192 66.15 38.2536 66.0367 38.3236 65.93C38.397 65.82 38.4803 65.7183 38.5736 65.625C38.6703 65.5283 38.772 65.445 38.8786 65.375C38.9886 65.3017 39.1036 65.2383 39.2236 65.185C39.477 65.0783 39.742 65.025 40.0186 65.025C40.2886 65.025 40.5536 65.0783 40.8136 65.185C40.9336 65.2383 41.047 65.3017 41.1536 65.375C41.2636 65.445 41.3653 65.5283 41.4586 65.625C41.5553 65.7183 41.6386 65.82 41.7086 65.93C41.782 66.0367 41.8453 66.15 41.8986 66.27C42.0053 66.53 42.0586 66.795 42.0586 67.065C42.0586 67.3417 42.0053 67.6067 41.8986 67.86C41.8453 67.98 41.782 68.095 41.7086 68.205C41.6386 68.3117 41.5553 68.4133 41.4586 68.51C41.3653 68.6033 41.2636 68.6867 41.1536 68.76C41.047 68.83 40.9336 68.8917 40.8136 68.945C40.5536 69.0517 40.2886 69.105 40.0186 69.105ZM40.0186 65.875C39.8553 65.875 39.7003 65.9067 39.5536 65.97C39.4103 66.0333 39.2853 66.1183 39.1786 66.225C39.072 66.3317 38.987 66.4583 38.9236 66.605C38.8603 66.7483 38.8286 66.9017 38.8286 67.065C38.8286 67.2283 38.8603 67.3833 38.9236 67.53C38.987 67.6733 39.072 67.7983 39.1786 67.905C39.2853 68.0117 39.4103 68.0967 39.5536 68.16C39.7003 68.2233 39.8553 68.255 40.0186 68.255C40.182 68.255 40.3353 68.2233 40.4786 68.16C40.6253 68.0967 40.752 68.0117 40.8586 67.905C40.9653 67.7983 41.0503 67.6733 41.1136 67.53C41.177 67.3833 41.2086 67.2283 41.2086 67.065C41.2086 66.9017 41.177 66.7483 41.1136 66.605C41.0503 66.4583 40.9653 66.3317 40.8586 66.225C40.752 66.1183 40.6253 66.0333 40.4786 65.97C40.3353 65.9067 40.182 65.875 40.0186 65.875ZM46.0936 65.135H46.5086V69H45.7186H45.5936L43.6086 66.415V69H43.3336H42.7586V65.135H43.6986L45.6586 67.69V65.135H46.0936ZM50.307 65.135V65.985H49.157V69H48.307V65.985H47.162V65.135H50.307ZM53.4517 67.435H50.9717V66.585H53.4517V67.435ZM56.7909 65.985H55.1709V66.56H56.7359V67.41H55.1709V68.15H56.7909V69H54.3209V65.135H56.7909V65.985ZM60.9813 65.135H61.3963V69H60.6063H60.4813L58.4963 66.415V69H58.2213H57.6463V65.135H58.5863L60.5463 67.69V65.135H60.9813ZM63.7347 69H62.2947V65.135H63.7347C64.0081 65.135 64.2647 65.1833 64.5047 65.28C64.7481 65.3733 64.9614 65.51 65.1447 65.69C65.3247 65.87 65.4631 66.0767 65.5597 66.31C65.6564 66.5433 65.7047 66.7917 65.7047 67.055C65.7047 67.3183 65.6581 67.5667 65.5647 67.8C65.4747 68.0333 65.3414 68.24 65.1647 68.42C65.0781 68.5133 64.9814 68.595 64.8747 68.665C64.7681 68.735 64.6547 68.795 64.5347 68.845C64.2814 68.9483 64.0147 69 63.7347 69ZM63.1447 68.15H63.7347C63.8981 68.15 64.0481 68.1233 64.1847 68.07C64.3247 68.0167 64.4431 67.9417 64.5397 67.845C64.6397 67.7483 64.7164 67.6333 64.7697 67.5C64.8264 67.3633 64.8547 67.215 64.8547 67.055C64.8547 66.9017 64.8264 66.76 64.7697 66.63C64.7164 66.4967 64.6397 66.3833 64.5397 66.29C64.4397 66.1933 64.3214 66.1183 64.1847 66.065C64.0481 66.0117 63.8981 65.985 63.7347 65.985H63.1447V68.15ZM69.8529 69H68.4129V65.135H69.8529C70.1262 65.135 70.3829 65.1833 70.6229 65.28C70.8662 65.3733 71.0796 65.51 71.2629 65.69C71.4429 65.87 71.5812 66.0767 71.6779 66.31C71.7746 66.5433 71.8229 66.7917 71.8229 67.055C71.8229 67.3183 71.7762 67.5667 71.6829 67.8C71.5929 68.0333 71.4596 68.24 71.2829 68.42C71.1962 68.5133 71.0996 68.595 70.9929 68.665C70.8862 68.735 70.7729 68.795 70.6529 68.845C70.3996 68.9483 70.1329 69 69.8529 69ZM69.2629 68.15H69.8529C70.0162 68.15 70.1662 68.1233 70.3029 68.07C70.4429 68.0167 70.5612 67.9417 70.6579 67.845C70.7579 67.7483 70.8346 67.6333 70.8879 67.5C70.9446 67.3633 70.9729 67.215 70.9729 67.055C70.9729 66.9017 70.9446 66.76 70.8879 66.63C70.8346 66.4967 70.7579 66.3833 70.6579 66.29C70.5579 66.1933 70.4396 66.1183 70.3029 66.065C70.1662 66.0117 70.0162 65.985 69.8529 65.985H69.2629V68.15ZM74.9891 65.985H73.3691V66.56H74.9341V67.41H73.3691V68.15H74.9891V69H72.5191V65.135H74.9891V65.985ZM79.1895 65.135H79.7745L78.0445 69H77.2195L75.4845 65.135H76.4145L77.6295 67.845L78.8445 65.135H79.1895ZM82.7772 65.985H81.1572V66.56H82.7222V67.41H81.1572V68.15H82.7772V69H80.3072V65.135H82.7772V65.985ZM86.1276 69H83.6326V65.135H84.4826V68.15H86.1276V69ZM88.627 69.105C88.3504 69.105 88.0854 69.0517 87.832 68.945C87.5854 68.8383 87.3687 68.6933 87.182 68.51C86.9987 68.3233 86.8537 68.1067 86.747 67.86C86.6404 67.6067 86.587 67.3417 86.587 67.065C86.587 66.795 86.6404 66.53 86.747 66.27C86.8004 66.15 86.862 66.0367 86.932 65.93C87.0054 65.82 87.0887 65.7183 87.182 65.625C87.2787 65.5283 87.3804 65.445 87.487 65.375C87.597 65.3017 87.712 65.2383 87.832 65.185C88.0854 65.0783 88.3504 65.025 88.627 65.025C88.897 65.025 89.162 65.0783 89.422 65.185C89.542 65.2383 89.6554 65.3017 89.762 65.375C89.872 65.445 89.9737 65.5283 90.067 65.625C90.1637 65.7183 90.247 65.82 90.317 65.93C90.3904 66.0367 90.4537 66.15 90.507 66.27C90.6137 66.53 90.667 66.795 90.667 67.065C90.667 67.3417 90.6137 67.6067 90.507 67.86C90.4537 67.98 90.3904 68.095 90.317 68.205C90.247 68.3117 90.1637 68.4133 90.067 68.51C89.9737 68.6033 89.872 68.6867 89.762 68.76C89.6554 68.83 89.542 68.8917 89.422 68.945C89.162 69.0517 88.897 69.105 88.627 69.105ZM88.627 65.875C88.4637 65.875 88.3087 65.9067 88.162 65.97C88.0187 66.0333 87.8937 66.1183 87.787 66.225C87.6804 66.3317 87.5954 66.4583 87.532 66.605C87.4687 66.7483 87.437 66.9017 87.437 67.065C87.437 67.2283 87.4687 67.3833 87.532 67.53C87.5954 67.6733 87.6804 67.7983 87.787 67.905C87.8937 68.0117 88.0187 68.0967 88.162 68.16C88.3087 68.2233 88.4637 68.255 88.627 68.255C88.7904 68.255 88.9437 68.2233 89.087 68.16C89.2337 68.0967 89.3604 68.0117 89.467 67.905C89.5737 67.7983 89.6587 67.6733 89.722 67.53C89.7854 67.3833 89.817 67.2283 89.817 67.065C89.817 66.9017 89.7854 66.7483 89.722 66.605C89.6587 66.4583 89.5737 66.3317 89.467 66.225C89.3604 66.1183 89.2337 66.0333 89.087 65.97C88.9437 65.9067 88.7904 65.875 88.627 65.875ZM92.212 69H91.362V65.135H92.787C93.0003 65.135 93.197 65.1617 93.377 65.215C93.5603 65.2683 93.722 65.3483 93.862 65.455C94.0253 65.5783 94.1487 65.7283 94.232 65.905C94.3187 66.0883 94.362 66.2883 94.362 66.505C94.362 66.715 94.3253 66.9083 94.252 67.085C94.1787 67.2717 94.0737 67.4283 93.937 67.555C93.797 67.695 93.6303 67.8017 93.437 67.875C93.2437 67.9483 93.0353 67.985 92.812 67.985H92.777H92.212V69ZM92.212 67.135H92.787H92.792C93.0287 67.1417 93.212 67.08 93.342 66.95C93.4553 66.84 93.512 66.6917 93.512 66.505C93.512 66.3917 93.4937 66.3083 93.457 66.255C93.4203 66.1983 93.3837 66.1567 93.347 66.13C93.2837 66.0833 93.2037 66.0483 93.107 66.025C93.0103 65.9983 92.9037 65.985 92.787 65.985H92.212V67.135ZM97.3963 65.985H95.7763V66.56H97.3413V67.41H95.7763V68.15H97.3963V69H94.9263V65.135H97.3963V65.985ZM101.292 69H100.922H100.252L99.5418 67.985H99.1018V69H98.2518V65.135H99.6768C99.8968 65.135 100.097 65.1633 100.277 65.22C100.46 65.2733 100.622 65.3533 100.762 65.46C100.838 65.5233 100.907 65.5933 100.967 65.67C101.03 65.7433 101.082 65.8233 101.122 65.91C101.208 66.0933 101.252 66.2917 101.252 66.505C101.252 66.7083 101.215 66.9017 101.142 67.085C101.072 67.2617 100.967 67.4183 100.827 67.555C100.717 67.665 100.595 67.7517 100.462 67.815L101.292 69ZM99.1018 67.135H99.6768H99.6818C99.9184 67.1417 100.102 67.08 100.232 66.95C100.345 66.8367 100.402 66.6883 100.402 66.505C100.402 66.1583 100.16 65.985 99.6768 65.985H99.1018V67.135Z" fill="black"/>
<path d="M17 64L30 64V70L17 64Z" fill="#0A0179"/>
<path d="M116 64L103 64V70L116 64Z" fill="#0A0179"/>
</svg>
